<svg xmlns="http://www.w3.org/2000/svg" viewBox="0 0 240 234">
  <path fill="#1F0040" d="M42.5 0h155C221 0 240 19 240 42.5v149c0 23.5-19 42.5-42.5 42.5h-155C19 234 0 215 0 191.5v-149C0 19 19 0 42.5 0z"/>
  <path fill="#D291FF" d="M96.4 140H59.2l-7.6 23.5c-.2.9-1 1.5-1.9 1.4H30.9c-1.1 0-1.4-.6-1.1-1.8l32.2-92.7c.3-1 .6-2.1 1-3.3.5-2.1.7-4.3.7-6.5-.1-.5.3-1 .8-1.1h25.9c.8 0 1.2.3 1.3.8l36.5 103c.3 1.1 0 1.6-1 1.6h-20.9c-.7.1-1.4-.4-1.6-1.1L96.4 140zM65 119.7h33.4c-.6-2.1-1.4-4.6-2.3-7.2-.9-2.7-1.8-5.6-2.7-8.6-.9-3.1-1.8-6.1-2.7-9.2-.9-3.1-1.7-6-2.4-8.7-.7-2.7-1.3-5.1-1.8-7.2h-.2c-.7 3.2-1.6 6.4-2.7 9.5-1.1 3.4-2.3 6.9-3.5 10.6-1.2 3.7-2.4 7.2-3.5 10.7-1.1 3.3-2.1 6.4-2.9 9.1zm121.1-19.5c-1.4.5-2.8.9-4.3 1.2-1.8.4-3.7.6-5.5.7-1.8.1-3.7 0-5.5-.2-1.6-.2-3.2-.6-4.7-1.1v35.5c0 .9-.4 1.3-1.2 1.3h-19.9c-.8 0-1.2-.4-1.2-1.3V88.4c0-2.1.1-4.3.4-6.5.2-1.6.6-3.2 1.3-4.7.3-.5.8-.8 1.4-.7 2.4.5 4.9.9 7.3 1.2 2.8.3 5.5.6 8.3.8 2.8.2 5.5.2 8.3.2 2.8 0 5.5.1 8 .1 4.7 0 9.4-.5 13.9-1.6.5-.1 1.1.2 1.2.7v17.2c0 .3-.1.6-.3.8-.2.2-.5.3-.8.3-.2-.1-.4-.1-.6-.1z"/>
</svg>
